<svg xmlns="http://www.w3.org/2000/svg" width="24" height="24" viewBox="0 0 24 24"><path d="M16.92 3c-.367 4.506-1.952 7.23-3.37 9.67-.578.992-1.137 1.952-1.544 2.95-.408-1-.97-1.96-1.548-2.954C9.036 10.23 7.448 7.506 7.078 3h9.843zM19 1H5c0 9.803 5.105 13.053 5.604 17h2.805C13.9 14.053 19 10.803 19 1zm-7 11.547c-1.125-2.563-1.85-5.6-1.857-8.547H8.76c.374 3.118 1.857 7.023 3.24 8.547zM13.438 19h-2.866c-.202 1.187-.63 2.62-2.57 2.62V23h8v-1.38c-2 0-2.372-1.433-2.564-2.62zm7.08-1.596c-1.402-.634-2.61-.19-3.354.293a3.493 3.493 0 0 0 1.595-3.003c-2.6 1.038-2.3 2.496-2.77 3.345-.32.57-1.01.27-1.01.27l-.22.35c.36.19.99.32 1.71.32 1.3 0 2.95-.41 4.02-1.58zm2.444-4.022c-1.382.097-2.118 1.06-2.5 1.763.382-.702.613-1.942-.05-3.158-1.61 1.93-.753 2.958-.763 3.83-.01.428-.49.418-.49.418v.404c.31-.05 3.15-.72 3.79-3.26zm1.036-3.87c-1.17.426-1.56 1.473-1.718 2.175.158-.702.04-1.863-.835-2.75-.915 2.068.082 2.745.29 3.503.102.37-.325.606-.325.606l.29.18c.06-.03 2.385-1.333 2.298-3.714zm-.2-3.792c-.903.666-1.017 1.688-.974 2.335-.042-.646-.395-1.64-1.376-2.182-.264 2.018.77 2.35 1.142 2.95.182.294.023.658.023.658l.284-.01s.026-.12.17-.44c.29-.64 1.254-1.33.73-3.3zM21.898 3s-.274.984-.046 1.732c.244.798.873 1.36.873 1.36s.34-.872.1-1.732c-.225-.792-.93-1.36-.93-1.36zM9.228 18.665l-.215-.352s-.69.297-1.007-.274c-.47-.85-.174-2.31-2.765-3.35a3.49 3.49 0 0 0 1.6 3c-.74-.49-1.95-.93-3.35-.3 1.08 1.17 2.72 1.58 4.03 1.58.73 0 1.35-.13 1.72-.32zm-4.395-2.027l.007-.404s-.485.01-.49-.417c-.008-.873.85-1.9-.76-3.83-.665 1.215-.434 2.456-.05 3.157-.384-.702-1.12-1.666-2.502-1.763.642 2.55 3.482 3.22 3.796 3.26zM2.3 13.225l.29-.18s-.426-.235-.324-.605c.208-.758 1.205-1.435.29-3.503-.876.887-.994 2.048-.835 2.75-.15-.702-.54-1.75-1.71-2.175-.09 2.38 2.24 3.684 2.3 3.713zM.936 9.02c.143.316.17.443.17.443l.283.02s-.16-.365.02-.66c.37-.6 1.4-.932 1.14-2.95-.99.543-1.34 1.535-1.38 2.182.04-.647-.07-1.67-.97-2.335-.53 1.966.44 2.656.73 3.3zm.24-4.66c-.24.86.1 1.733.1 1.733s.63-.563.873-1.36C2.37 3.983 2.1 3 2.1 3s-.705.568-.927 1.36z"/></svg>