<?xml version="1.0" encoding="utf-8"?>
<!-- Generator: Adobe Illustrator 15.0.0, SVG Export Plug-In . SVG Version: 6.00 Build 0)  -->
<!DOCTYPE svg PUBLIC "-//W3C//DTD SVG 1.1//EN" "http://www.w3.org/Graphics/SVG/1.1/DTD/svg11.dtd">
<svg version="1.1" id="Ebene_1" xmlns="http://www.w3.org/2000/svg" xmlns:xlink="http://www.w3.org/1999/xlink" x="0px" y="0px"
	 width="306px" height="50px" viewBox="0 0 306 50" enable-background="new 0 0 306 50" xml:space="preserve">
<g>
	<defs>
		<rect id="SVGID_1_" x="10" y="-1.14" width="350" height="48.279"/>
	</defs>
	<clipPath id="SVGID_2_">
		<use xlink:href="#SVGID_1_"  overflow="visible"/>
	</clipPath>
	<rect x="74.604" y="2.971" clip-path="url(#SVGID_2_)" fill="#FDC43C" width="16.825" height="33.375"/>
	<rect x="57.778" y="2.971" clip-path="url(#SVGID_2_)" fill="#F04F8F" width="16.826" height="33.375"/>
	<polygon clip-path="url(#SVGID_2_)" fill="#F04F8F" points="87.492,47.14 74.604,36.325 74.604,2.971 87.492,13.787 	"/>
	<g clip-path="url(#SVGID_2_)">
		<path fill="#231F20" d="M50.974,36.453H17.631V3.017h33.343V36.453z M46.713,32.146V17.049H32.172v-4.26h14.541V7.278H21.892
			v15.143h14.541v4.261H21.892v5.465H46.713z"/>
	</g>
	<g clip-path="url(#SVGID_2_)">
		<path fill="#231F20" d="M130.719,36.453H97.376V3.017h33.343V36.453z M126.458,32.146V7.278h-10.281v19.404h-4.26V7.278h-10.281
			v24.869H126.458z"/>
		<path fill="#231F20" d="M169.711,36.453h-33.436V3.017h33.436V36.453z M165.45,32.191V7.278h-24.915v24.914h10.327v-9.724h4.26
			v9.724H165.45z M155.123,17.002h-4.26v-4.26h4.26V17.002z"/>
		<path fill="#231F20" d="M208.609,36.453h-33.342V3.017h33.342V36.453z M204.35,32.146V21.865h-4.863v-4.261h4.863V7.278h-24.822
			v24.869h10.281v-9.679h4.26v9.679H204.35z M194.068,17.049h-4.26v-4.26h4.26V17.049z"/>
		<path fill="#231F20" d="M247.602,36.453h-33.436V3.017h33.436V36.453z M243.342,32.191v-5.463h-14.588v-4.261h14.588v-5.465
			h-14.588v-4.26h14.588V7.278h-24.915v24.914H243.342z"/>
		<path fill="#231F20" d="M286.501,36.453h-33.343V3.017h33.343V36.453z M282.24,32.146V17.049h-14.541v-4.26h14.541V7.278h-24.821
			v15.143h14.541v4.261h-14.541v5.465H282.24z"/>
	</g>
	<g clip-path="url(#SVGID_2_)">
		<defs>
			<rect id="SVGID_3_" x="10" y="-1.14" width="350" height="48.279"/>
		</defs>
		<clipPath id="SVGID_4_">
			<use xlink:href="#SVGID_3_"  overflow="visible"/>
		</clipPath>
		<g opacity="0.2" clip-path="url(#SVGID_4_)">
			<g>
				<defs>
					<rect id="SVGID_5_" x="70.875" y="-0.889" width="20.394" height="51.888"/>
				</defs>
				<clipPath id="SVGID_6_">
					<use xlink:href="#SVGID_5_"  overflow="visible"/>
				</clipPath>
				<polygon clip-path="url(#SVGID_6_)" fill="#231F20" points="87.516,13.787 74.627,2.971 74.627,36.323 87.516,47.14 				"/>
			</g>
		</g>
	</g>
</g>
</svg>
