<?xml version="1.0" encoding="utf-8"?>
<!-- Generator: Adobe Illustrator 15.0.0, SVG Export Plug-In . SVG Version: 6.00 Build 0)  -->
<!DOCTYPE svg PUBLIC "-//W3C//DTD SVG 1.1//EN" "http://www.w3.org/Graphics/SVG/1.1/DTD/svg11.dtd">
<svg version="1.1" id="Ebene_1" xmlns="http://www.w3.org/2000/svg" xmlns:xlink="http://www.w3.org/1999/xlink" x="0px" y="0px"
	 width="306px" height="50px" viewBox="0 0 306 50" enable-background="new 0 0 306 50" xml:space="preserve">
<g>
	<defs>
		<rect id="SVGID_1_" x="10" y="-1.14" width="350" height="48.279"/>
	</defs>
	<clipPath id="SVGID_2_">
		<use xlink:href="#SVGID_1_"  overflow="visible"/>
	</clipPath>
	<rect x="74.604" y="2.971" clip-path="url(#SVGID_2_)" fill="#00BDB8" width="16.825" height="33.376"/>
	<rect x="57.778" y="2.971" clip-path="url(#SVGID_2_)" fill="#FDC43C" width="16.826" height="33.376"/>
	<polygon clip-path="url(#SVGID_2_)" fill="#FDC43C" points="87.493,13.786 87.493,47.14 87.492,47.139 74.604,36.324 74.604,2.971 
			"/>
	<g clip-path="url(#SVGID_2_)">
		<path fill="#231F20" d="M50.975,36.453H17.632V3.018h33.343V36.453z M46.714,32.146V17.049H32.173v-4.26h14.541V7.278H21.892
			v15.143h14.541v4.26H21.892v5.465H46.714z"/>
	</g>
	<g clip-path="url(#SVGID_2_)">
		<path fill="#231F20" d="M130.72,36.453H97.377V3.018h33.343V36.453z M126.459,32.146V7.278h-10.281v19.403h-4.26V7.278h-10.281
			v24.868H126.459z"/>
		<path fill="#231F20" d="M169.711,36.453h-33.435V3.018h33.435V36.453z M165.451,32.192V7.278h-24.915v24.914h10.327v-9.725h4.261
			v9.725H165.451z M155.125,17.003h-4.261v-4.26h4.261V17.003z"/>
		<path fill="#231F20" d="M208.611,36.453h-33.343V3.018h33.343V36.453z M204.351,32.146V21.866h-4.862v-4.261h4.862V7.278h-24.821
			v24.868h10.28v-9.679h4.261v9.679H204.351z M194.07,17.049h-4.261v-4.26h4.261V17.049z"/>
		<path fill="#231F20" d="M247.603,36.453h-33.436V3.018h33.436V36.453z M243.343,32.192v-5.464h-14.588v-4.261h14.588v-5.465
			h-14.588v-4.26h14.588V7.278h-24.915v24.914H243.343z"/>
		<path fill="#231F20" d="M286.503,36.453H253.16V3.018h33.343V36.453z M282.242,32.146V17.049h-14.541v-4.26h14.541V7.278h-24.821
			v15.143h14.541v4.26h-14.541v5.465H282.242z"/>
	</g>
	<g clip-path="url(#SVGID_2_)">
		<defs>
			<rect id="SVGID_3_" x="10" y="-1.14" width="350" height="48.279"/>
		</defs>
		<clipPath id="SVGID_4_">
			<use xlink:href="#SVGID_3_"  overflow="visible"/>
		</clipPath>
		<g opacity="0.2" clip-path="url(#SVGID_4_)">
			<g>
				<defs>
					<rect id="SVGID_5_" x="70.973" y="-0.889" width="20.395" height="51.888"/>
				</defs>
				<clipPath id="SVGID_6_">
					<use xlink:href="#SVGID_5_"  overflow="visible"/>
				</clipPath>
				<polygon clip-path="url(#SVGID_6_)" fill="#231F20" points="87.614,13.786 74.726,2.971 74.726,36.324 87.614,47.139 				"/>
			</g>
		</g>
	</g>
</g>
</svg>
