<?xml version="1.0" encoding="utf-8"?>
<!-- Generator: Adobe Illustrator 15.0.0, SVG Export Plug-In . SVG Version: 6.00 Build 0)  -->
<!DOCTYPE svg PUBLIC "-//W3C//DTD SVG 1.1//EN" "http://www.w3.org/Graphics/SVG/1.1/DTD/svg11.dtd">
<svg version="1.1" id="Ebene_1" xmlns="http://www.w3.org/2000/svg" xmlns:xlink="http://www.w3.org/1999/xlink" x="0px" y="0px"
	 width="306px" height="50px" viewBox="0 0 306 50" enable-background="new 0 0 306 50" xml:space="preserve">
<g>
	<g>
		<g>
			<defs>
				<rect id="SVGID_1_" x="10" y="-1.14" width="350" height="48.279"/>
			</defs>
			<clipPath id="SVGID_2_">
				<use xlink:href="#SVGID_1_"  overflow="visible"/>
			</clipPath>
			<rect x="74.604" y="2.971" clip-path="url(#SVGID_2_)" fill="#FDC43C" width="16.825" height="33.376"/>
		</g>
	</g>
	<g>
		<g>
			<defs>
				<rect id="SVGID_3_" x="10" y="-1.14" width="350" height="48.279"/>
			</defs>
			<clipPath id="SVGID_4_">
				<use xlink:href="#SVGID_3_"  overflow="visible"/>
			</clipPath>
			<rect x="57.778" y="2.971" clip-path="url(#SVGID_4_)" fill="#00BDB8" width="16.826" height="33.376"/>
		</g>
	</g>
	<g>
		<g>
			<defs>
				<rect id="SVGID_5_" x="10" y="-1.14" width="350" height="48.279"/>
			</defs>
			<clipPath id="SVGID_6_">
				<use xlink:href="#SVGID_5_"  overflow="visible"/>
			</clipPath>
			<polygon clip-path="url(#SVGID_6_)" fill="#00BDB8" points="87.493,13.786 87.493,47.139 87.492,47.141 74.604,36.324 
				74.604,2.971 			"/>
		</g>
	</g>
	<g>
		<g>
			<defs>
				<rect id="SVGID_7_" x="10" y="-1.14" width="350" height="48.279"/>
			</defs>
			<clipPath id="SVGID_8_">
				<use xlink:href="#SVGID_7_"  overflow="visible"/>
			</clipPath>
			<g clip-path="url(#SVGID_8_)">
				<path d="M50.975,36.453H17.632V3.018h33.343V36.453z M46.714,32.146V17.049H32.173v-4.26h14.541V7.278H21.892v15.143h14.541
					v4.261H21.892v5.465H46.714L46.714,32.146z"/>
			</g>
		</g>
	</g>
	<g>
		<g>
			<defs>
				<rect id="SVGID_9_" x="10" y="-1.14" width="350" height="48.279"/>
			</defs>
			<clipPath id="SVGID_10_">
				<use xlink:href="#SVGID_9_"  overflow="visible"/>
			</clipPath>
			<g clip-path="url(#SVGID_10_)">
				<path d="M130.72,36.453H97.377V3.018h33.343V36.453z M126.459,32.146V7.278h-10.281v19.404h-4.26V7.278h-10.281v24.869H126.459
					L126.459,32.146z"/>
				<path d="M169.711,36.453h-33.435V3.018h33.435V36.453z M165.451,32.191V7.278h-24.915v24.914h10.327v-9.725h4.261v9.725H165.451
					L165.451,32.191z M155.125,17.003h-4.261v-4.26h4.261V17.003z"/>
				<path d="M208.611,36.453h-33.344V3.018h33.344V36.453z M204.352,32.146v-10.28h-4.863v-4.261h4.863V7.278h-24.822v24.869h10.281
					v-9.68h4.26v9.68H204.352L204.352,32.146z M194.07,17.049h-4.262v-4.26h4.262V17.049z"/>
				<path d="M247.604,36.453h-33.437V3.018h33.437V36.453z M243.343,32.191v-5.463h-14.588v-4.263h14.588v-5.465h-14.588v-4.26
					h14.588V7.278h-24.915v24.914H243.343L243.343,32.191z"/>
				<path d="M286.503,36.453H253.16V3.018h33.343V36.453z M282.242,32.146V17.049h-14.541v-4.26h14.541V7.278h-24.821v15.143h14.541
					v4.261h-14.541v5.465H282.242L282.242,32.146z"/>
			</g>
		</g>
	</g>
	<g>
		<g>
			<defs>
				<rect id="SVGID_11_" x="10" y="-1.14" width="350" height="48.279"/>
			</defs>
			<clipPath id="SVGID_12_">
				<use xlink:href="#SVGID_11_"  overflow="visible"/>
			</clipPath>
			<g clip-path="url(#SVGID_12_)">
				<g>
					<g>
						<defs>
							<rect id="SVGID_13_" x="10" y="-1.14" width="350" height="48.279"/>
						</defs>
						<clipPath id="SVGID_14_">
							<use xlink:href="#SVGID_13_"  overflow="visible"/>
						</clipPath>
						<g clip-path="url(#SVGID_14_)">
							<g>
								<g opacity="0.2">
									<g>
										<defs>
											<rect id="SVGID_15_" x="70.851" y="-0.889" width="20.395" height="51.888"/>
										</defs>
										<clipPath id="SVGID_16_">
											<use xlink:href="#SVGID_15_"  overflow="visible"/>
										</clipPath>
										<polygon clip-path="url(#SVGID_16_)" fill="#231F20" points="87.493,13.786 74.604,2.971 74.604,36.324 87.493,47.139 
																					"/>
									</g>
								</g>
							</g>
						</g>
					</g>
				</g>
			</g>
		</g>
	</g>
</g>
</svg>
