<?xml version="1.0" encoding="utf-8"?>
<!-- Generator: Adobe Illustrator 15.0.0, SVG Export Plug-In . SVG Version: 6.00 Build 0)  -->
<!DOCTYPE svg PUBLIC "-//W3C//DTD SVG 1.1//EN" "http://www.w3.org/Graphics/SVG/1.1/DTD/svg11.dtd">
<svg version="1.1" id="Ebene_1" xmlns="http://www.w3.org/2000/svg" xmlns:xlink="http://www.w3.org/1999/xlink" x="0px" y="0px"
	 width="306px" height="50px" viewBox="0 0 306 50" enable-background="new 0 0 306 50" xml:space="preserve">
<g>
	<defs>
		
			<rect id="SVGID_1_" x="3.63" y="-1.909" transform="matrix(-1 0.0014 -0.0014 -1 377.0981 47.0087)" width="369.806" height="51.085"/>
	</defs>
	<clipPath id="SVGID_2_">
		<use xlink:href="#SVGID_1_"  overflow="visible"/>
	</clipPath>
	
		<rect x="70.497" y="2.413" transform="matrix(1 -0.0014 0.0014 1 -0.0274 0.1085)" clip-path="url(#SVGID_2_)" fill="#FDC43C" width="17.87" height="35.45"/>
	
		<rect x="52.627" y="2.437" transform="matrix(1 -0.0014 0.0014 1 -0.0275 0.0841)" clip-path="url(#SVGID_2_)" fill="#F04F8F" width="17.87" height="35.451"/>
	<polygon clip-path="url(#SVGID_2_)" fill="#F04F8F" points="84.226,49.319 70.522,37.852 70.474,2.424 84.179,13.893 	"/>
	<g clip-path="url(#SVGID_2_)">
		<text transform="matrix(1 -0.0014 0.0014 1 7.1167 38.085)" fill="#231F20" font-family="'OrigamiMommy'" font-size="49.187">S</text>
	</g>
	<g clip-path="url(#SVGID_2_)">
		<text transform="matrix(1 -0.0014 0.0014 1 91.8159 37.9688)" fill="#231F20" font-family="'OrigamiMommy'" font-size="49.187">UARES</text>
	</g>
	<g clip-path="url(#SVGID_2_)">
		<defs>
			
				<rect id="SVGID_3_" x="3.63" y="-1.909" transform="matrix(-1 0.0014 -0.0014 -1 377.0981 47.0087)" width="369.806" height="51.085"/>
		</defs>
		<clipPath id="SVGID_4_">
			<use xlink:href="#SVGID_3_"  overflow="visible"/>
		</clipPath>
		<g opacity="0.2" clip-path="url(#SVGID_4_)">
			<g>
				<defs>
					
						<rect id="SVGID_5_" x="67.881" y="-0.309" transform="matrix(-1 0.0014 -0.0014 -1 154.7872 51.6337)" width="18.988" height="52.362"/>
				</defs>
				<clipPath id="SVGID_6_">
					<use xlink:href="#SVGID_5_"  overflow="visible"/>
				</clipPath>
				<polygon clip-path="url(#SVGID_6_)" fill="#231F20" points="84.203,13.893 70.499,2.424 70.547,37.852 84.252,49.318 				"/>
			</g>
		</g>
	</g>
</g>
</svg>
